<svg xmlns="http://www.w3.org/2000/svg" fill="none" viewBox="0 0 30 30" id="Eye--Streamline-Ionic-Filled" height="30" width="30">
  <desc>
    Eye Streamline Icon: https://streamlinehq.com
  </desc>
  <path fill="#000000" d="M14.995750000000001 18.748875c2.0707500000000003 0 3.7494375 -1.6786875 3.7494375 -3.7494375S17.0665 11.25 14.995750000000001 11.25s-3.7494375 1.6786875 -3.7494375 3.7494375 1.6786875 3.7494375 3.7494375 3.7494375Z" stroke-width="0.625"></path>
  <path fill="#000000" d="M28.756687499999998 13.980375c-1.5503749999999998 -2.3976249999999997 -3.5618749999999997 -4.4343125 -5.8165625 -5.890375C20.4458125 6.477500000000001 17.691937499999998 5.625 14.976750000000001 5.625c-2.491375 0 -4.941125 0.711875 -7.2813125 2.1158125 -2.3864875 1.431375 -4.54856875 3.5225625 -6.426475 6.2149375 -0.21199374999999998 0.30425 -0.32875 0.6647500000000001 -0.33543125 1.0355 -0.006675 0.37081250000000004 0.09703125 0.7351874999999999 0.29793125 1.046875 1.5474437499999998 2.4216875 3.53901875 4.4613125 5.758475 5.897375 2.499 1.6189375 5.188437500000001 2.43925 7.9868125 2.43925 2.7368749999999995 0 5.496625000000001 -0.8455 7.9803749999999996 -2.4445 2.2535 -1.451375 4.260875 -3.4956875 5.805375000000001 -5.9131875 0.194 -0.30443749999999997 0.2965625 -0.6581874999999999 0.2955625 -1.01925 -0.0010624999999999999 -0.361 -0.10562500000000001 -0.714125 -0.301375 -1.0174375Zm-13.759999999999998 6.6444375c-1.1125 0 -2.2 -0.32987500000000003 -3.125 -0.948 -0.925 -0.6180625 -1.646 -1.4965625 -2.0717499999999998 -2.524375 -0.4256875 -1.0278125 -0.5371250000000001 -2.15875 -0.3200625 -3.2499375 0.217 -1.091125 0.7527499999999999 -2.093375 1.5393750000000002 -2.8800625 0.7866875 -0.7866249999999999 1.7890000000000001 -1.322375 2.880125 -1.5393750000000002 1.091125 -0.21712499999999998 2.2220625 -0.10562500000000001 3.249875 0.3200625 1.027875 0.42575 1.906375 1.1466875 2.5244375000000003 2.0716875000000003 0.6180625 0.925 0.9479375 2.0125625 0.9479375 3.1250625 -0.0016875000000000002 1.4913124999999998 -0.594875 2.9210625 -1.6493749999999998 3.9755625 -1.0545 1.0544375000000001 -2.4842500000000003 1.6476875 -3.9755625 1.6493749999999998Z" stroke-width="0.625"></path>
</svg>